<svg xmlns="http://www.w3.org/2000/svg" viewBox="0 0 500.53 442.78"><defs><style>.cls-1{fill:#fff;}.cls-2{fill:#6d6d6c;}.cls-3{fill:#8a8989;}.cls-4{fill:#1d1d1b;}.cls-5{fill:#ededeb;}.cls-6{fill:#efefed;}.cls-7{fill:#0f0f0e;}.cls-8{fill:#121111;}.cls-9{fill:#e9e9e7;}.cls-10{fill:#f4f4f2;}</style></defs><g id="Layer_1" data-name="Layer 1"><path class="cls-1" d="M260.4,10.42c6.45,4.95,10.4,11.43,14.42,18.37,4.17,7.08,9.59,11.41,17.58,13.63a122,122,0,0,0,14.44.13l7.56-.18,3.35-.11c2.65.16,2.65.16,4.65,2.16.84,4,.68,5.91-1.5,9.44-10.37,13.34-24.66,23.57-41.69,26-2.61.25-5.19.44-7.81.54l0,2.38,0,3.18,0,3.35A18.74,18.74,0,0,1,270.4,96c0,5.18,2.94,8,6.12,11.89,2.8,3.79,2.8,3.79,2.88,6.55a13.39,13.39,0,0,1-2.93,3.25l-1.72,1.58-1.35,1.17c-4.29-1.65-6.88-4.74-10-8a18.56,18.56,0,0,0-6,4l2.21,1.37c11,7,21.36,15,27.79,26.63l1.36,2.36c9.72,17.95,7.57,37.32,2.7,56.34-2.38,7.92-2.38,7.92-4.75,9.26-3.4.06-6-1.06-9.18-2.27l-3.62-1.36-3.51-1.33q-3-1-6-2c1.83-11.47,1.83-11.47,3.13-16.12a67.9,67.9,0,0,0,1.25-13.94l.08-2.29c0-8.28-3.14-13.35-8.61-19.4l-2.18-2.42-1.67-1.83-.06,2.11q-.33,9.89-.67,19.77c-.11,3.39-.23,6.78-.34,10.17-.12,3.9-.26,7.8-.39,11.7l-.12,3.65a157,157,0,0,1-1.42,17.6l2.21.5a147.37,147.37,0,0,1,21.61,6.94l3.26,1.31c16.27,6.71,31.48,15.35,46.68,24.15,17.24,9.92,34.25,15.61,54.36,11.38a55,55,0,0,0,16.88-8.28l-1.68-2.5-2.32-3.5-1.3-1.93-1.32-2-1.23-1.84c-4.63-9-4.65-20.91-2.34-30.6,7.17-18.55,24.9-37.41,43.19-45.62,3.38-.44,3.38-.44,6,0,2,2,2,2,2.18,4.7,0,1.13-.06,2.26-.09,3.42s0,2.49-.06,3.78q-.09,3.92-.19,7.84a65.9,65.9,0,0,0,2.47,20.68c2.12,7.88.43,14.42-2.33,21.92a53.56,53.56,0,0,0-2,6.66l1.83-1.06,2.42-1.38,2.39-1.37c8.19-4.13,18.26-2.61,26.89-.64a41.14,41.14,0,0,0,20.47-1.55c6.38-.31,6.38-.31,9,1,.69,6-1.58,9.69-4.5,14.69l-1.38,2.41c-8.95,15.43-19.07,28-35.9,35.07a47.88,47.88,0,0,1-12.47,1.21H443.6a36.54,36.54,0,0,1-17.2-4.38q-3-1-6-2l-1,2c-9.78,19.22-20,37.75-33,55-.64.87-.64.87-1.31,1.75-24.45,32.39-58.94,61.68-99.42,70.87-27.71,3.22-48.21-4.5-70.49-20.37-3.54-2.49-7.16-4.87-10.78-7.25,1.34,3.46,2.85,6.81,4.42,10.16,6.43,14,10,27.33,10.08,42.84l0,3.17c-.12,7.29-.12,7.29-1.81,9.61-3,2.11-6.27,1.64-9.71,1.22-18.41-5.29-33.38-17.66-43-34.14a91.44,91.44,0,0,1-11.58-42.41,14.25,14.25,0,0,0-5.36-10.14,50.18,50.18,0,0,0-17.09-7.31l.14,1.76c.27,5.64-.25,8.83-4.14,13.24-16.17,10.88-42.56,9.46-61.15,9.28-3.27,0-6.53,0-9.8,0l-6.32,0H46.22a114.68,114.68,0,0,1-15.82-1.19v-3h3v-14l4-2,3.44,5.81,1.94,3.27a23.41,23.41,0,0,1,2.62,5.92l5-13h2l8,14,7-14h2l5,10a55.26,55.26,0,0,0,4-11c3.72,1.45,4.95,3.12,6.75,6.63l1.3,2.47,1,1.9a73.87,73.87,0,0,0,6-12,33.08,33.08,0,0,1,5.69,7.06l1.33,2.1a5.48,5.48,0,0,1,1,3.84h2l.37-2c.86-4.52,1.67-8.79,3.63-13a35.64,35.64,0,0,1,7,9l5-12-2.76.26q-10.94,1-21.89,2l-2.14.19C80,351,67.44,351.52,54.76,351.6l-4.4,0c-12.81.11-24.53.06-35-8.21C8.64,336.51,6.19,328,4.82,318.68l-.37-2.49c-1.34-9.24-2.1-18.52-2.73-27.83-.07-.9-.13-1.79-.19-2.72C.65,272.93.09,260.23,0,247.48l0-2.1c-.12-12.39,1.3-25.09,9.83-34.71l2.56-2.25,2.19-2.06c8.78-6.05,17.2-6.48,27.61-6.24l4.36,0c3.84,0,7.67.12,11.51.2l6.88.14q15.14.28,30.27.72l7.42.2c26.27.7,52.52,1.63,78.76,3l.06-2.1a410.31,410.31,0,0,1,2.94-41.9l-2.49,1c-17.32,6.92-33.09,8.36-50.51,1a86.48,86.48,0,0,1-10-6c-2.67-2.26-2.67-2.26-4.93-1.75l-2.07.75-2.18.75c-2.09,1.13-2.09,1.13-2.32,3.75l-.5,2.5a25.72,25.72,0,0,1-4,2l-3.81-3.75c-.71-.69-1.41-1.39-2.14-2.11a54,54,0,0,1-5-6.14c1.1-3,1.68-3.84,4.63-5.25l2.37-.75,2,3c3.88-1.61,6.67-4.23,9.69-7.06l1.59-1.47c4.12-3.84,8.09-7.81,12-11.89,1.74-1.58,1.74-1.58,3.74-1.58l-1.56-2.69c-1.53-3.52-1.81-4.78-.44-8.31,3-2,3-2,4.94-1.94,2.93,1.33,4.15,3.39,6.06,5.94,1.65,1.69,3.31,3.36,5,5-1.26,3.81-2.64,4-6,6a22.86,22.86,0,0,0-3,4c6.75,3.31,6.75,3.31,14,5l1.92.19c8.81.49,17.18-2.77,24.08-8.19q2.52-2.47,5-5l10-10a74.07,74.07,0,0,0-6.56-10.68c-5.71-9.2-5.91-22.14-3.76-32.58.69-2.29,1.43-4.52,2.32-6.74l-2.22-.83c-13.43-5.65-22-16.87-28-29.77a20.57,20.57,0,0,1-1-7.09V27.41c.26-2,.26-2,2.26-4,3.9.19,6.82,1.36,10.25,3.06,6,2.79,11.63,2.92,17.94.94,4.93-3.5,8.45-8.22,12.11-13C210.18-5.28,241.28-3,260.4,10.42Z"/><path class="cls-1" d="M130.4,348.42c8,1,14.2,3.33,20,9,3,4,3.35,6.94,3.44,11.88.69,16.74,7.06,31.69,16,45.6,1.57,2.52,1.57,2.52,1.57,3.52a124.86,124.86,0,0,1-25-2l-.11,3.07c-.06,1.35-.13,2.71-.2,4.06l-.07,2a24.06,24.06,0,0,1-3.62,11.86c-10.18.61-19-4.87-26.43-11.44-6.72-6.49-12.94-13.39-17.57-21.56v-2l-2-.11a98.43,98.43,0,0,1-21-4l-3.28-.94c-38-11.11-38-11.11-44.72-21.94a13.39,13.39,0,0,1,0-5,31.65,31.65,0,0,1,6.52.49,122.65,122.65,0,0,0,15.21.71l3.1,0,6.5,0c3.24,0,6.48,0,9.71.07,30.15.54,30.15.54,58-9.31C129.89,358.19,130.07,353.7,130.4,348.42Z"/><path class="cls-1" d="M29.4,21.42c6.28,2.18,10.3,6.48,15,11l2,1.86A227.81,227.81,0,0,1,71,61.64c2.5,3.26,5.13,6.42,7.74,9.59,5.07,6.2,10,12.52,14.81,18.9q5.39,7.07,10.94,14l1.47,1.83,2.92,3.63c2.56,3.2,5.12,6.39,7.67,9.6l1.43,1.77a23,23,0,0,1,4.38,7.48c-12.45,11-12.45,11-15,11a29.75,29.75,0,0,1-2.68-3.06C101,132,97,128,92.9,123.92c-4.47-4.43-8.83-8.86-12.89-13.68-2-2.21-4-4.25-6.11-6.32-3.37-3.33-6.54-6.75-9.62-10.35-2.21-2.53-4.48-5-6.75-7.46L52.4,80.42,50,77.84C37,62.87,28.37,41.38,29.4,21.42Z"/><path class="cls-2" d="M184.4,69.42c43.88-.62,43.88-.62,63,6-1.33,8.44-5.42,16.8-12.34,22-4.22,2.67-7.66,3.66-12.66,3q-3-2-6-4c-3.08.17-3.78.79-6,3a24.11,24.11,0,0,1-9,0l-4-5a16,16,0,0,0-4.5-.06c-4.24.22-4.24.22-6.93-1.5-3.58-5.58-4.35-11.94-3.57-18.44C183.05,72.75,183.71,71.08,184.4,69.42Z"/><path class="cls-1" d="M203.4,374.42a111.37,111.37,0,0,1,15.82,9.88c15.9,11.54,31.17,18.54,51,18.43h3.21a65.47,65.47,0,0,0,21-3.31c1.58-.41,3.17-.81,4.75-1.19l3.25-.81c-3.09,6.19-17.58,8.56-24.18,10.78C261,413.84,242.45,417,224.4,418.42l-2.66.22-2.34-.22a17,17,0,0,1-3-6.88l-.55-2.33-.59-2.48c-2.55-10.2-5.94-20.49-11.82-29.31Z"/><path class="cls-3" d="M99.4,403.42a135.82,135.82,0,0,1,14.75,3.81c7,2.22,14.11,3.89,21.27,5.53l2.65.61,2.39.54a13.67,13.67,0,0,1,3.94,1.51c.06,2.92.1,5.83.13,8.75l.05,2.5,0,2.42,0,2.23a14.4,14.4,0,0,1-2.23,6.1c-10.18.61-19-4.87-26.43-11.44-6.37-6.15-12.51-12.6-16.57-20.56Z"/><path class="cls-4" d="M153.65,290.61c3.19,2.1,4.89,3.45,6.75,6.81.68,4.58.59,8.58-1.18,12.88-3.2,3.74-5.83,6.19-10.75,7.06-4.1.32-6.63-.6-10.07-2.94-4.09-4.42-5.37-7.86-5.28-13.94.61-4.43,3.22-7.17,6.53-9.93C144.63,288.51,148.74,288.81,153.65,290.61Z"/><path class="cls-4" d="M217.4,15.42c1.24,1.77,2.39,3.59,3.5,5.44,2.13,3.94,2.13,3.94,5.5,6.56l.69-2.12c1.63-3.57,3.72-5.94,6.31-8.88,2.85,1.28,5.14,2.45,7,5-.22,2.94-.88,3.89-3.06,5.92l-2.5,1.83L232.34,31l-1.94,1.39A17.29,17.29,0,0,0,236,39.67l1.91,1.58,1.46,1.17c-.34,3.26-1,4-3.56,6.25l-2.44,1.75c-1.33-1.62-2.67-3.24-4-4.87l-2.25-2.75c-1.75-2.38-1.75-2.38-1.75-4.38l-2.12,2.13-8.88,8.87c-3.16-1.37-4-2-6-5,.18-2.77.76-3.77,2.78-5.7l2.16-1.55,2.15-1.58c1.91-1.17,1.91-1.17,3.91-1.17l-2-2.37c-2-2.63-2-2.63-2-4.63l-1.87-.87a11.7,11.7,0,0,1-4.13-3.13v-3C214.75,15.42,214.75,15.42,217.4,15.42Z"/><path class="cls-5" d="M119.4,347.42a45.41,45.41,0,0,1-3.06,8.75l-1.1,2.42-.84,1.83a80.9,80.9,0,0,1-6-9c-1.76,4.64-3.46,9.28-5,14h-2c-1.28-1.95-2.48-4-3.62-6l-1.91-3.37-1.47-2.63c-2.28,2.29-3,4.13-4.12,7.13l-1.07,2.75-.81,2.12c-3-2.74-4.78-5.8-6.81-9.26-1.08-1.89-1.08-1.89-3.19-2.74L78,356.61a32.35,32.35,0,0,1-2.63,8.81c-3-2.55-4.41-5.45-6-9v-2h-2v-2h2v-2l17-1.28,5.78-.44,8.35-.62,2.57-.2C108.57,347.48,114,347.36,119.4,347.42Z"/><path class="cls-1" d="M270.35,101.53c2.77,1.21,4,2.83,5.87,5.2l1.89,2.37c1.29,2.32,1.29,2.32,1.15,4.44-1.32,2.9-3.54,4.74-5.86,6.88-4.13-1.59-7.23-4.6-10-8v-2l-2-1h2l.82-2.87C265.48,103.24,266.5,101.32,270.35,101.53Z"/><path class="cls-6" d="M34.4,350.42l29,1v1l-2.33.19-3,.25-3,.25c-2.58.16-2.58.16-4.61,1.31q-.51,3-1,6c-.9,2.71-1.94,5.34-3,8-3.55-1.78-4.73-6.45-6.34-10-.81-1.71-1.73-3.37-2.66-5l-3-1Z"/><path class="cls-7" d="M229.4,75.42c2.8,2,3.83,3.13,4.5,6.5-.67,3.37-1.7,4.52-4.5,6.5-3.17.45-5.06.53-7.87-1.06-1.77-3-1.49-5.5-1.13-8.94C222.56,74.71,225.4,74.85,229.4,75.42Z"/><path class="cls-8" d="M192.53,72.48c2.87.94,2.87.94,4.87,3.94-.44,5.45-.44,5.45-3,8-3.13.34-5.16.53-7.87-1.19-1.56-2.51-1.62-3.9-1.13-6.81C187.63,73.17,188.53,72.4,192.53,72.48Z"/><path class="cls-9" d="M69.4,350.42h13l-2,4-2-1L78,356.61a32.35,32.35,0,0,1-2.63,8.81c-3-2.55-4.41-5.45-6-9v-2h-2v-2h2Z"/><path class="cls-10" d="M82.4,350.42h11c-2.81,11.25-2.81,11.25-6,15q-1.55-2.32-3.06-4.69l-1.72-2.63C81.4,355.42,81.4,355.42,82.4,350.42Z"/><path class="cls-4" d="M207.47,166.23c2.93.19,2.93.19,3.93,1.19a24.09,24.09,0,0,1,0,6c-3,2-3,2-5.68,1.63l-2.32-.63a44.15,44.15,0,0,1-1-6C204.4,166.42,204.4,166.42,207.47,166.23Z"/><path class="cls-4" d="M205.4,146.42a24.09,24.09,0,0,1,6,0c1,1,1,1,1.19,3.94-.19,3.06-.19,3.06-2.19,5.06a41.71,41.71,0,0,1-6-1,28,28,0,0,1-1-5Z"/><path class="cls-4" d="M205.9,184.17c2.5.25,2.5.25,4.5,2.25a41.25,41.25,0,0,1-1,6,41.25,41.25,0,0,1-6,1c-2-2-2-2-2.25-4.5C201.5,185.43,202.41,184.52,205.9,184.17Z"/></g></svg>